<?xml version="1.0" encoding="UTF-8"?>
<svg id="Layer_1" data-name="Layer 1" xmlns="http://www.w3.org/2000/svg" width="482.03" height="119.85" viewBox="0 0 482.03 119.85">
  <defs>
    <style>
      .cls-1 {
        fill: #002664;
      }

      .cls-2 {
        fill: #d7153a;
      }
    </style>
  </defs>
  <path class="cls-2" d="M48.2,59.45c-7.78-.99-15.35,1.59-28.65-2.15-1.36-.38-1.86,1.1-1.12,2.34,3.57,6.05,21.63,1.31,29.81,.44,.36-.04,.32-.58-.04-.63"/>
  <path class="cls-2" d="M82.28,57.3c-13.31,3.75-20.87,1.16-28.65,2.15-.36,.05-.39,.59-.03,.63,8.18,.88,26.23,5.61,29.81-.44,.74-1.24,.23-2.73-1.12-2.34"/>
  <path class="cls-2" d="M23.6,48.65c-2.7-4.11-4.92-8.7-6.63-13.76-5.16,1.56-10.45,3.82-15.83,6.77C.45,42.04,.02,42.76,0,43.57c-.02,.81,.37,1.55,1.05,1.97,10.42,6.46,20.6,10.15,30.32,11-2.89-1.83-5.55-4.51-7.77-7.88"/>
  <path class="cls-2" d="M9.09,34.93c2.38-.99,4.75-1.84,7.08-2.55-.84-2.81-1.53-5.77-2.07-8.85-2.69-.35-5.48-.57-8.36-.67h-.07c-.76,0-1.44,.39-1.83,1.06-.41,.69-.43,1.53-.05,2.24,1.67,3.13,3.44,6.05,5.29,8.76"/>
  <path class="cls-2" d="M34.69,55.37c1.62,.74,3.27,1.15,4.87,1.24-3.92-2.91-7.01-7.84-8.78-14.12-2.29-8.09-3.05-17.02-2.3-26.65-3.09-2.02-6.43-3.91-10.04-5.66-.69-.34-1.49-.27-2.13,.18-.63,.45-.99,1.18-.94,1.98,.84,13.97,4.32,25.69,10.34,34.84,2.53,3.83,5.63,6.67,8.98,8.2"/>
  <path class="cls-2" d="M42.37,9.63c-1.85-2.32-3.85-4.61-6.01-6.88-.42-.44-.96-.67-1.52-.67-.2,0-.4,.03-.6,.09-.76,.23-1.31,.86-1.47,1.68-.42,2.11-1.23,6.41-1.58,10.66,2.77,1.88,5.32,3.88,7.66,5.97,.91-3.57,2.09-7.2,3.53-10.85"/>
  <path class="cls-2" d="M100.68,41.66c-5.38-2.95-10.66-5.2-15.83-6.77-1.71,5.06-3.92,9.65-6.63,13.76-2.22,3.37-4.87,6.05-7.77,7.88,9.72-.85,19.91-4.55,30.32-11,.68-.42,1.07-1.15,1.05-1.97-.02-.81-.45-1.53-1.15-1.91"/>
  <path class="cls-2" d="M92.74,34.93c1.85-2.71,3.62-5.63,5.29-8.76,.38-.71,.36-1.55-.05-2.24-.4-.67-1.08-1.06-1.83-1.06h-.07c-2.88,.1-5.67,.32-8.36,.67-.54,3.08-1.23,6.03-2.07,8.85,2.34,.71,4.7,1.56,7.09,2.55"/>
  <path class="cls-2" d="M71.05,42.48c-1.77,6.28-4.86,11.21-8.78,14.12,1.6-.09,3.25-.5,4.87-1.24,3.35-1.53,6.45-4.37,8.98-8.2,6.02-9.14,9.5-20.86,10.34-34.84,.05-.79-.31-1.53-.94-1.98-.64-.45-1.43-.51-2.13-.18-3.6,1.75-6.95,3.64-10.04,5.66,.76,9.63-.01,18.56-2.3,26.65"/>
  <path class="cls-2" d="M70.64,14.51c-.36-4.25-1.16-8.55-1.58-10.66-.17-.82-.72-1.45-1.47-1.68-.2-.06-.4-.09-.6-.09-.56,0-1.1,.23-1.52,.67-2.16,2.27-4.17,4.56-6.02,6.88,1.44,3.65,2.62,7.27,3.53,10.85,2.34-2.1,4.89-4.09,7.66-5.97"/>
  <path class="cls-2" d="M50.91,35.63c2.62-5.35,6.8-10.14,9.94-13.17-1.72-7.26-4.38-14.11-8.04-21.28-.38-.74-1.09-1.18-1.9-1.18s-1.52,.44-1.9,1.18c-3.7,7.19-6.4,14.34-8.03,21.28,3.28,3.14,7.6,8.26,9.93,13.17"/>
  <path class="cls-2" d="M60.52,54.6c2.71-1.97,5.43-5.41,7.15-10.2,3.33-9.26,3.68-19.58,3.2-26.88-6.04,4.17-15.63,12.89-18.91,22.2-1.54,4.39-2.26,10.35-1.07,13.69,.5,1.39,1.34,2.45,2.5,2.95,1.76,.76,4.46,.19,7.13-1.76"/>
  <path class="cls-2" d="M49.55,38.91c-.8-1.93-1.68-3.75-3.05-5.79-3.87-5.79-9.08-11-15.56-15.6-.07,1.09-1.01,12.78,2.31,24.22,2.52,8.7,6.84,12.25,9.21,13.61,2.38,1.37,4.55,1.7,7.11,1.04-2.59-3.65-2.27-11.14-.02-17.49"/>
  <polygon class="cls-1" points="10.22 78.32 24.78 100.09 30.69 100.09 30.69 67.53 24.07 67.53 24.07 88.48 10.15 67.61 10.1 67.53 3.62 67.53 3.62 100.09 10.22 100.09 10.22 78.32"/>
  <path class="cls-1" d="M57.82,85.46c-.58-.98-1.47-1.87-2.62-2.64-1.15-.77-2.72-1.37-4.66-1.76l-5.39-1.15c-1.63-.36-2.75-.83-3.34-1.4-.57-.55-.86-1.28-.86-2.17,0-.57,.13-1.08,.37-1.54,.24-.45,.6-.85,1.06-1.19,.46-.34,1.03-.61,1.7-.79,.67-.19,1.43-.29,2.25-.29,1.08,0,2.05,.15,2.89,.44,.83,.29,1.52,.77,2.05,1.42,.53,.65,.85,1.54,.96,2.64l.02,.15h6.69v-.17c-.04-1.87-.54-3.58-1.52-5.09-.98-1.52-2.42-2.73-4.29-3.61-1.86-.88-4.19-1.33-6.91-1.33-2.29,0-4.38,.41-6.23,1.23-1.85,.82-3.34,2-4.42,3.51-1.08,1.52-1.63,3.34-1.61,5.4,.04,2.52,.78,4.57,2.2,6.09,1.41,1.51,3.34,2.52,5.74,2.99l5.44,1.15c1,.2,1.9,.48,2.69,.8,.77,.32,1.39,.74,1.83,1.24,.43,.49,.65,1.13,.65,1.91,0,.86-.27,1.59-.81,2.16-.55,.59-1.3,1.03-2.22,1.32-.94,.29-1.99,.44-3.13,.44s-2.13-.18-3.03-.53c-.9-.35-1.65-.86-2.24-1.51-.59-.65-.99-1.47-1.2-2.42l-.03-.13h-6.82l.02,.19c.16,1.65,.65,3.12,1.47,4.35,.82,1.23,1.86,2.27,3.11,3.08,1.24,.82,2.63,1.44,4.14,1.85,1.5,.41,3.05,.61,4.61,.61,2.55,0,4.81-.42,6.72-1.24,1.92-.83,3.44-1.96,4.51-3.38,1.08-1.43,1.63-3.05,1.63-4.84,0-.84-.09-1.78-.28-2.78-.18-1.02-.57-2.02-1.15-2.99"/>
  <polygon class="cls-1" points="93.4 67.53 87.73 88.36 81.99 67.53 77.2 67.53 71.53 88.35 65.86 67.53 59.35 67.53 68.63 100.09 73.81 100.09 79.58 79.48 85.32 100.09 90.59 100.09 99.89 67.53 93.4 67.53"/>
  <path class="cls-1" d="M7.56,110.36h1.98l-.05,.42c-.02,.16-.07,.33-.16,.49-.08,.17-.2,.33-.35,.47-.15,.14-.32,.26-.53,.35-.2,.09-.44,.13-.71,.13-.28,0-.56-.05-.82-.15-.26-.09-.49-.26-.69-.5-.21-.24-.38-.57-.5-.98-.13-.42-.19-.96-.19-1.6,0-.79,.1-1.43,.29-1.91,.19-.47,.45-.81,.76-1.02,.32-.21,.68-.32,1.08-.32,.33,0,.62,.07,.86,.22,.24,.14,.45,.34,.6,.58,.16,.25,.27,.52,.32,.81l.03,.14h2.38v-.18c-.03-.47-.14-.93-.35-1.35-.21-.43-.5-.82-.86-1.17-.36-.34-.79-.61-1.29-.81-.49-.2-1.04-.29-1.64-.29-.92,0-1.74,.22-2.44,.66-.69,.44-1.25,1.06-1.63,1.87-.39,.8-.58,1.75-.58,2.84s.18,2.01,.55,2.8c.37,.79,.9,1.42,1.58,1.85,.68,.43,1.49,.65,2.4,.65,.54,0,1.01-.07,1.39-.23,.37-.15,.69-.35,.96-.59,.12-.11,.24-.23,.34-.34v1.02h1.67v-5.58l-4.4-.02v1.75Z"/>
  <path class="cls-1" d="M20.21,104.34c-.69-.43-1.5-.65-2.43-.65s-1.76,.22-2.45,.66c-.69,.43-1.24,1.06-1.62,1.86-.38,.79-.57,1.75-.57,2.84s.19,2.04,.57,2.82c.38,.8,.93,1.41,1.62,1.84,.69,.43,1.52,.64,2.47,.64s1.76-.22,2.45-.64c.69-.43,1.23-1.05,1.61-1.85,.37-.79,.55-1.74,.55-2.82s-.19-2.05-.56-2.85c-.38-.8-.92-1.42-1.61-1.86m-1.29,7.68c-.32,.21-.7,.32-1.14,.32s-.82-.11-1.14-.32c-.32-.21-.57-.56-.75-1.03-.18-.48-.28-1.13-.28-1.92s.09-1.47,.28-1.97c.18-.49,.43-.85,.75-1.07,.32-.22,.7-.33,1.14-.33s.81,.12,1.13,.33c.32,.22,.57,.58,.74,1.06,.18,.5,.27,1.16,.27,1.97s-.09,1.44-.27,1.92c-.17,.47-.42,.82-.74,1.03"/>
  <polygon class="cls-1" points="27.14 111.15 24.71 103.87 22.5 103.87 25.91 114.18 28.36 114.18 31.8 103.87 29.59 103.87 27.14 111.15"/>
  <polygon class="cls-1" points="35.03 110 39.08 110 39.08 107.99 35.04 107.99 35.04 105.91 39.7 105.91 39.71 103.87 32.76 103.87 32.76 114.18 39.77 114.18 39.77 112.13 35.03 112.12 35.03 110"/>
  <path class="cls-1" d="M47.95,109.37c.27-.25,.49-.57,.66-.96,.17-.38,.25-.85,.25-1.4,0-.61-.13-1.16-.37-1.63-.24-.48-.63-.86-1.15-1.12-.51-.26-1.17-.4-1.96-.4h-4.23v10.31h2.27v-3.84h1.67l1.57,3.84h2.38l-1.83-4.27c.26-.14,.51-.33,.73-.54m-1.39-2.3c0,.41-.13,.73-.4,.99-.27,.26-.65,.39-1.13,.39h-1.61v-2.7h1.75c.41,0,.74,.12,1,.36,.26,.24,.39,.55,.39,.96"/>
  <polygon class="cls-1" points="56.69 110.09 52.54 103.87 50.36 103.87 50.36 114.18 52.63 114.18 52.63 107.7 56.96 114.18 58.96 114.18 58.96 103.87 56.69 103.87 56.69 110.09"/>
  <polygon class="cls-1" points="65.92 110.59 63.83 103.87 60.72 103.87 60.72 114.18 63.01 114.18 63.01 107.54 65.03 114.18 66.8 114.18 68.83 107.5 68.83 114.18 71.13 114.18 71.13 103.87 68.02 103.87 65.92 110.59"/>
  <polygon class="cls-1" points="75.16 110 79.21 110 79.21 107.99 75.17 107.99 75.17 105.91 79.83 105.91 79.84 103.87 72.88 103.87 72.88 114.18 79.9 114.18 79.9 112.13 75.16 112.12 75.16 110"/>
  <polygon class="cls-1" points="87.68 110.09 83.54 103.87 81.36 103.87 81.36 114.18 83.63 114.18 83.63 107.7 87.95 114.18 89.96 114.18 89.96 103.87 87.68 103.87 87.68 110.09"/>
  <polygon class="cls-1" points="90.92 106 93.83 106 93.83 114.18 96.11 114.18 96.11 106 98.96 106 98.96 103.87 90.92 103.87 90.92 106"/>
  <g>
    <g>
      <path class="cls-1" d="M163.07,50.72v25.04h-4.24v-25.04h4.24Z"/>
      <path class="cls-1" d="M168.4,57.86h4.15v2.56c.84-1.39,2.55-2.77,5.43-2.77,3.33,0,6.32,1.89,6.32,6.34v11.78h-4.26v-11.27c0-2.34-1.47-3.48-3.44-3.48s-3.96,1.02-3.96,3.07v11.69h-4.24v-17.91Z"/>
      <path class="cls-1" d="M187.77,70.33h3.74c.47,1.99,2.27,2.81,4.08,2.81,2.17,0,3.61-.73,3.61-2.27,0-1.13-.7-1.77-2.34-2.11l-3.42-.78c-3.07-.68-5.06-2.11-5.08-4.94-.02-3.19,2.48-5.52,7.24-5.52,4.21,0,6.95,1.92,7.04,5.37h-3.61c-.26-1.54-1.52-2.46-3.46-2.46s-3.42,.76-3.42,2.32c0,1.09,.96,1.66,2.93,2.08l3.25,.78c3.7,.92,4.57,3.34,4.57,5.02,0,3.46-2.85,5.49-7.3,5.49-3.77,0-7.24-1.73-7.84-5.78Z"/>
      <path class="cls-1" d="M212.68,60.83l.02,10.27c0,1.59,.49,1.77,1.87,1.77h2.23v2.67c-.49,.19-1.4,.36-2.95,.36-4.29,0-5.41-1.77-5.41-4.64v-10.43h-2.93v-2.98h3.05l1.06-5.32h3.05v5.3h4.03v3h-4.03Z"/>
      <path class="cls-1" d="M224.77,54.72h-4.21v-3.98h4.21v3.98Zm-.07,21.04h-4.07v-17.91h4.07v17.91Z"/>
      <path class="cls-1" d="M235.47,60.83l.02,10.27c0,1.59,.49,1.77,1.87,1.77h2.23v2.67c-.49,.19-1.4,.36-2.95,.36-4.29,0-5.41-1.77-5.41-4.64v-10.43h-2.93v-2.98h3.05l1.06-5.32h3.05v5.3h4.03v3h-4.03Z"/>
      <path class="cls-1" d="M243.1,70.13v-12.28h4.26v11.79c0,1.96,1.24,3.33,3.75,3.33,2.29,0,3.77-1.23,3.77-3.46v-11.66h4.22v17.91h-3.26l-.47-3.5c-.66,2.94-3.05,3.86-5.38,3.84-3.51-.02-6.89-2.06-6.89-5.97Z"/>
      <path class="cls-1" d="M269.84,60.83l.02,10.27c0,1.59,.49,1.77,1.87,1.77h2.23v2.67c-.49,.19-1.4,.36-2.95,.36-4.29,0-5.41-1.77-5.41-4.64v-10.43h-2.93v-2.98h3.05l1.06-5.32h3.05v5.3h4.03v3h-4.03Z"/>
      <path class="cls-1" d="M285.62,72.99c2.01,0,3.6-.87,4.08-2.7h3.88c-.63,3.74-4.22,5.82-7.87,5.82-5.22,0-8.78-3.48-8.78-9.11s3.12-9.49,8.54-9.49,8.19,3.58,8.19,8.99v1.28h-12.48c-.02,3.05,1.54,5.21,4.45,5.21Zm4.02-7.83c0-2.6-1.36-4.62-4.19-4.62s-4.29,2.32-4.29,4.62h8.48Z"/>
      <path class="cls-1" d="M304.61,66.9c0-5.63,3.19-9.39,8.55-9.39s8.47,3.52,8.47,9.39c0,5.44-3.04,9.21-8.48,9.21s-8.54-3.41-8.54-9.21Zm12.86-.12c0-3.29-1.15-6.1-4.31-6.1-2.97,0-4.36,2.49-4.36,6.1,0,3.24,1.15,6.13,4.36,6.13,2.92,0,4.31-2.58,4.31-6.13Z"/>
      <path class="cls-1" d="M335.87,60.83h-4.07v14.93h-4.24v-14.93h-3.56v-2.98h3.56v-2.67c0-2.86,1.62-4.47,4.66-4.47h3.8l.02,2.88h-2.51c-1.38,0-1.8,.68-1.8,2.18v2.08h4.14v2.98Z"/>
    </g>
    <g>
      <path class="cls-1" d="M166.02,88.89h4.61l9.06,25.04h-4.26l-2.25-6.29h-9.67l-2.27,6.29h-4.28l9.06-25.04Zm6.09,15.02l-3.79-10.93-3.81,10.93h7.59Z"/>
      <path class="cls-1" d="M183.11,96.02h4.24l.04,2.82c.96-1.58,2.9-3.17,5.74-3.17,4.17,0,7.12,2.89,7.12,9.11s-3.02,9.49-7.51,9.49c-2.74,0-4.5-1.66-5.38-3.29v8.52h-4.26v-23.48Zm13.13,8.83c0-3.74-1.66-6.04-4.43-6.04-2.98,0-4.47,2.53-4.47,6.04s1.48,6.27,4.47,6.27c2.55,0,4.43-1.94,4.43-6.27Z"/>
      <path class="cls-1" d="M203.98,96.02h4.24l.04,2.82c.96-1.58,2.9-3.17,5.74-3.17,4.17,0,7.12,2.89,7.12,9.11s-3.02,9.49-7.51,9.49c-2.74,0-4.5-1.66-5.38-3.29v8.52h-4.26v-23.48Zm13.13,8.83c0-3.74-1.66-6.04-4.43-6.04-2.98,0-4.47,2.53-4.47,6.04s1.48,6.27,4.47,6.27c2.55,0,4.43-1.94,4.43-6.27Z"/>
      <path class="cls-1" d="M224.86,109.1v-20.9h4.15v20.42c0,1.56,.61,2.42,2.04,2.55l.91,.03v2.65c-.63,.21-1.33,.35-1.9,.35-4.68,0-5.2-2.55-5.2-5.09Z"/>
      <path class="cls-1" d="M239.99,92.89h-4.21v-3.98h4.21v3.98Zm-.07,21.04h-4.07v-17.91h4.07v17.91Z"/>
      <path class="cls-1" d="M252.51,111.16c2.01,0,3.6-.87,4.08-2.7h3.88c-.63,3.74-4.22,5.82-7.87,5.82-5.22,0-8.78-3.48-8.78-9.11s3.12-9.49,8.54-9.49,8.19,3.58,8.19,8.99v1.28h-12.48c-.02,3.05,1.54,5.21,4.45,5.21Zm4.01-7.83c0-2.6-1.36-4.62-4.19-4.62s-4.29,2.32-4.29,4.62h8.48Z"/>
      <path class="cls-1" d="M263.48,104.89c0-5.59,2.51-9.21,7.28-9.21,2.97,0,4.92,1.59,5.66,2.96v-10.44h4.28v25.74h-3.14l-.47-3.67c-.56,1.71-2.08,4.02-5.93,4.02-4.78,0-7.66-3.38-7.66-9.39Zm12.93-.1c-.04-3.9-1.34-5.97-4.35-5.97-2.57,0-4.38,1.75-4.38,5.97s1.57,6.39,4.33,6.39c3.05,0,4.4-1.82,4.4-6.39Z"/>
      <path class="cls-1" d="M291.66,88.89h19.69v3.79h-7.58v21.25h-4.26v-21.25h-7.86v-3.79Z"/>
      <path class="cls-1" d="M322.24,111.16c2.01,0,3.6-.87,4.08-2.7h3.88c-.63,3.74-4.22,5.82-7.87,5.82-5.22,0-8.78-3.48-8.78-9.11s3.12-9.49,8.54-9.49,8.19,3.58,8.19,8.99v1.28h-12.48c-.02,3.05,1.54,5.21,4.45,5.21Zm4.02-7.83c0-2.6-1.36-4.62-4.19-4.62s-4.29,2.32-4.29,4.62h8.48Z"/>
      <path class="cls-1" d="M349.2,102.15h-3.61c-.28-1.63-1.54-3.2-3.81-3.2-2.71,0-4.56,1.97-4.56,6.06,0,3.79,1.66,6.2,4.63,6.2,2.25,0,3.51-1.71,3.77-3.2h3.53c-.33,3.65-3.25,6.27-7.4,6.27-4.96,0-8.54-3.36-8.54-9.23,0-5.56,3.25-9.37,8.54-9.37,4.22,0,7.07,2.72,7.45,6.48Z"/>
      <path class="cls-1" d="M353.04,88.19h4.19v10.43c.89-1.33,2.51-2.75,5.39-2.75,3.47,0,6.3,2.06,6.3,5.51v12.56h-4.26v-11.85c0-1.85-1.48-2.91-3.47-2.91s-3.91,1.04-3.91,3.08v11.67h-4.24v-25.74Z"/>
      <path class="cls-1" d="M373.32,96.02h4.15v2.56c.84-1.39,2.55-2.77,5.43-2.77,3.33,0,6.32,1.89,6.32,6.34v11.78h-4.26v-11.27c0-2.34-1.47-3.48-3.44-3.48s-3.96,1.02-3.96,3.07v11.69h-4.24v-17.91Z"/>
      <path class="cls-1" d="M392.66,105.06c0-5.63,3.19-9.39,8.55-9.39s8.47,3.52,8.47,9.39c0,5.44-3.04,9.21-8.48,9.21-5.17,0-8.54-3.41-8.54-9.21Zm12.87-.12c0-3.29-1.15-6.1-4.31-6.1-2.97,0-4.36,2.49-4.36,6.1,0,3.24,1.15,6.13,4.36,6.13,2.92,0,4.31-2.58,4.31-6.13Z"/>
      <path class="cls-1" d="M413.41,109.1v-20.9h4.15v20.42c0,1.56,.61,2.42,2.04,2.55l.91,.03v2.65c-.63,.21-1.33,.35-1.9,.35-4.68,0-5.2-2.55-5.2-5.09Z"/>
      <path class="cls-1" d="M423.38,105.06c0-5.63,3.19-9.39,8.55-9.39s8.47,3.52,8.47,9.39c0,5.44-3.04,9.21-8.48,9.21s-8.54-3.41-8.54-9.21Zm12.86-.12c0-3.29-1.15-6.1-4.31-6.1-2.97,0-4.36,2.49-4.36,6.1,0,3.24,1.15,6.13,4.36,6.13,2.92,0,4.31-2.58,4.31-6.13Z"/>
      <path class="cls-1" d="M442.72,115.32c0-2.51,3.07-3.36,3.47-3.62-.59-.33-2.06-.92-2.06-2.48,0-1.21,1.13-2.32,3.46-2.75-2.27-1.09-3.51-3.07-3.51-5.07,0-3.53,3.33-5.65,8.24-5.65,2.41,0,3.86,.57,5.22,1.47,.92-.36,3.72-1.49,4.97-2.01l-.02,3.48-3.12,.55c.3,.68,.49,1.52,.49,2.13,0,3.13-2.65,5.8-7.89,5.8-.37,0-1.08-.02-1.45-.05-1.88,.07-2.46,.48-2.46,.94,0,.62,.99,.74,3.3,.9,.82,.05,2.2,.12,3.82,.23,4.12,.26,6.27,2.16,6.27,5,0,3.31-3.05,5.66-9.29,5.66s-9.44-1.73-9.44-4.54Zm14.65-.4c0-1.23-1.01-2.08-2.99-2.22l-4.56-.28c-1.5-.09-2.93,1.04-2.93,2.39,0,1.7,1.9,2.56,5.99,2.56,3.05,0,4.49-.85,4.49-2.46Zm-1.54-13.44c0-2.11-1.5-3.38-3.72-3.38s-3.77,1.28-3.77,3.38,1.4,3.22,3.77,3.22c2.22,0,3.72-1.16,3.72-3.22Z"/>
      <path class="cls-1" d="M465.1,119.11v-2.7l1.82,.05c2.93,.16,3.44-1.13,3.72-1.82l.47-1.32-7.04-17.3h4.22l4.8,12.66,4.78-12.66h4.15l-7.44,18.57c-1.68,4.07-3.72,5.06-6.39,5.06-2.32,0-3.11-.54-3.11-.54Z"/>
    </g>
  </g>
</svg>